<?xml version="1.0" encoding="UTF-8" standalone="no"?><!DOCTYPE svg PUBLIC "-//W3C//DTD SVG 1.1//EN" "http://www.w3.org/Graphics/SVG/1.1/DTD/svg11.dtd"><svg width="100%" height="100%" viewBox="0 0 376 289" version="1.1" xmlns="http://www.w3.org/2000/svg" xmlns:xlink="http://www.w3.org/1999/xlink" xml:space="preserve" style="fill-rule:evenodd;clip-rule:evenodd;stroke-linecap:round;stroke-linejoin:round;stroke-miterlimit:1.5;"><path d="M0.281,257.131l58.483,0l54.621,-134.109l78.104,134.109l30.301,-55.173l-15.7,-36.668l-14.601,25.034l-7.328,-12.694l-6.555,-11.356l-8.124,-14.074l22.007,-59.83l74.482,195.786l41.395,0l-31.793,-97.832l-9.602,11.634l-14.351,-49.758l18.124,-29.178l56.921,134.109l48.616,0l-48.616,-109.599l-8.071,4.668l-43.021,-96.024l-9.602,23.171l-5.533,-8.12l-21.732,38.708l-47.217,-109.654l-48.581,103.582l-29.523,-54.201l-10.628,29.685l-6.042,-4.285l-15.464,36.456l-4.866,11.472l-28.562,67.334l-13.686,-8.243l-33.856,75.05Z" style="fill:#fff;stroke:#fff;stroke-width:0.56px;"/><path d="M78.678,288.156l40.236,0l30.189,-81.371l-16.198,-33.617l-9.986,33.617l-8.932,-10.322l-35.309,91.693Z" style="fill:#fff;stroke:#fff;stroke-width:0.56px;"/></svg>